<svg xmlns="http://www.w3.org/2000/svg" version="1.1" xmlns:xlink="http://www.w3.org/1999/xlink" xmlns:svgjs="http://svgjs.dev/svgjs" width="128" height="128" viewBox="0 0 128 128"><g transform="matrix(0.44782608695652176,0,0,0.44782608695652176,35.339245078260866,12.5)"><svg viewBox="0 0 125 225" data-background-color="#ffffff" preserveAspectRatio="xMidYMid meet" height="230" width="128" xmlns="http://www.w3.org/2000/svg" xmlns:xlink="http://www.w3.org/1999/xlink"><g id="tight-bounds" transform="matrix(1,0,0,1,0,0)"><svg viewBox="0 0 125 225" height="225" width="125"><g><svg></svg></g><g><svg viewBox="0 0 125 225" height="225" width="125"><g><path d="M116.207 81.502c-4.854-8.402-44.013-30.998-53.707-30.998-9.694 0-48.839 22.596-53.707 30.998-4.528 7.82-4.528 54.19 0 62.01 4.868 8.388 44.013 30.984 53.707 30.984 9.694 0 48.853-22.596 53.707-30.998 4.528-7.82 4.528-54.176 0-61.996zM120.891 78.791c-5.649-9.765-46.667-33.709-58.391-33.709-11.724 0-52.742 23.944-58.391 33.709-5.479 9.453-5.479 57.965 0 67.418 5.649 9.765 46.667 33.709 58.391 33.709 11.724 0 52.742-23.944 58.391-33.695 5.479-9.467 5.479-57.979 0-67.432zM117.541 144.279c-4.982 8.615-45.106 31.765-55.041 31.764-9.935 0-50.06-23.163-55.041-31.778-4.641-8.019-4.641-55.538 0-63.558 4.982-8.601 45.106-31.75 55.041-31.75 9.935 0 50.06 23.163 55.041 31.764 4.641 8.019 4.641 55.538 0 63.558z" fill="#ed1703" fill-rule="nonzero" stroke="none" stroke-width="1" stroke-linecap="butt" stroke-linejoin="miter" stroke-miterlimit="10" stroke-dasharray="" stroke-dashoffset="0" font-family="none" font-weight="none" font-size="none" text-anchor="none" style="mix-blend-mode: normal" data-fill-palette-color="tertiary"></path></g><g transform="matrix(1,0,0,1,39.62574427480916,77.7375)"><svg viewBox="0 0 45.748511450381685 69.525" height="69.525" width="45.748511450381685"><g><svg viewBox="0 0 45.748511450381685 69.525" height="69.525" width="45.748511450381685"><g><svg viewBox="0 0 45.748511450381685 69.525" height="69.525" width="45.748511450381685"><g id="textblocktransform"><svg viewBox="0 0 45.748511450381685 69.525" height="69.525" width="45.748511450381685" id="textblock"><g><svg viewBox="0 0 45.748511450381685 69.525" height="69.525" width="45.748511450381685"><g transform="matrix(1,0,0,1,0,0)"><svg width="45.748511450381685" viewBox="1.85 -32.75 21.549999999999997 32.75" height="69.525" data-palette-color="#ffffff"><path d="M12.4-11.95L12.4-11.95Q9.7-11.8 9.4-11.8L9.4-11.8 7.05-11.8 7.05 0 1.85 0 1.85-32.75 12.15-32.75Q17.6-32.75 20.4-30.33 23.2-27.9 23.2-22.25L23.2-22.25Q23.2-15.75 17.6-13.1L17.6-13.1Q21.05-6.55 23.4 0L23.4 0 17.8 0Q15.55-6.05 12.4-11.95ZM11.15-28.15L11.15-28.15 7.05-28.15 7.05-16.6 11.2-16.6Q17.9-16.6 17.9-22.25L17.9-22.25Q17.9-25.4 16.3-26.78 14.7-28.15 11.15-28.15Z" opacity="1" transform="matrix(1,0,0,1,0,0)" fill="#ffffff" class="undefined-text-0" data-fill-palette-color="quaternary" id="text-0"></path></svg></g></svg></g></svg></g></svg></g><g></g></svg></g></svg></g></svg></g><defs></defs></svg><rect width="125" height="225" fill="none" stroke="none" visibility="hidden"></rect></g></svg></g></svg>